<?xml version="1.0" encoding="UTF-8" standalone="no"?>
<svg
   xmlns:dc="http://purl.org/dc/elements/1.1/"
   xmlns:cc="http://creativecommons.org/ns#"
   xmlns:rdf="http://www.w3.org/1999/02/22-rdf-syntax-ns#"
   xmlns:svg="http://www.w3.org/2000/svg"
   xmlns="http://www.w3.org/2000/svg"
   xmlns:sodipodi="http://sodipodi.sourceforge.net/DTD/sodipodi-0.dtd"
   xmlns:inkscape="http://www.inkscape.org/namespaces/inkscape"
   inkscape:version="1.0 (4035a4f, 2020-05-01)"
   sodipodi:docname="escudo.svg"
   xml:space="preserve"
   style="enable-background:new 0 0 474.521 474.521;"
   viewBox="0 0 474.521 474.521"
   height="474.521px"
   width="474.521px"
   y="0px"
   x="0px"
   id="Capa_1"
   version="1.1"><metadata
   id="metadata53"><rdf:RDF><cc:Work
       rdf:about=""><dc:format>image/svg+xml</dc:format><dc:type
         rdf:resource="http://purl.org/dc/dcmitype/StillImage" /></cc:Work></rdf:RDF></metadata><defs
   id="defs51" /><sodipodi:namedview
   inkscape:current-layer="Capa_1"
   inkscape:window-maximized="1"
   inkscape:window-y="23"
   inkscape:window-x="0"
   inkscape:cy="237.2605"
   inkscape:cx="142.40557"
   inkscape:zoom="2.0294149"
   showgrid="false"
   id="namedview49"
   inkscape:window-height="1107"
   inkscape:window-width="2048"
   inkscape:pageshadow="2"
   inkscape:pageopacity="0"
   guidetolerance="10"
   gridtolerance="10"
   objecttolerance="10"
   borderopacity="1"
   bordercolor="#666666"
   pagecolor="#ffffff" />
<g
   id="g16">
	<g
   id="g14">
		<path
   id="path10"
   d="M237.263,60.498c-4.65,3.535-68.417,50.977-150.197,67.352C76.285,316.566,237.161,414.269,237.263,414.213    c0.102,0.056,160.979-97.646,150.198-286.368C305.676,111.475,237.263,60.498,237.263,60.498z" />
		<path
   id="path12"
   d="M440.632,97.439c-0.326-5.731-4.486-10.517-10.117-11.649C330.787,65.828,245.64,3.124,244.8,2.498    c-4.505-3.357-10.69-3.33-15.167,0.08c-3.358,2.554-83.385,62.755-185.621,83.218c-5.633,1.127-9.791,5.918-10.121,11.65    c-8.192,143.403,59.091,246.563,116.98,307.845c21.724,23.005,42.109,40.01,55.386,50.221    c7.617,5.855,13.769,10.156,17.585,12.733c7.127,4.82,9.178,6.2,13.11,6.271c0.164,0.006,0.325,0.006,0.481,0.006    c3.88,0,6.221-1.565,12.394-5.702c3.343-2.244,8.758-5.98,15.504-11.084c11.753-8.872,29.925-23.641,49.779-43.63    c37.301-37.549,66.997-79.36,88.25-124.264C431.938,229.481,444.479,164.748,440.632,97.439z M330.16,359.379    c-38.295,48.021-77.872,77.274-92.897,87.491c-15.022-10.217-54.599-39.464-92.909-87.514    c-59.926-75.164-88.739-159.527-85.713-250.893c86.318-19.494,156.141-64.586,178.688-80.349    c22.851,15.74,93.877,61.128,178.554,80.342C418.91,199.834,390.099,284.21,330.16,359.379z" />
	</g>
</g>
<g
   id="g18">
</g>
<g
   id="g20">
</g>
<g
   id="g22">
</g>
<g
   id="g24">
</g>
<g
   id="g26">
</g>
<g
   id="g28">
</g>
<g
   id="g30">
</g>
<g
   id="g32">
</g>
<g
   id="g34">
</g>
<g
   id="g36">
</g>
<g
   id="g38">
</g>
<g
   id="g40">
</g>
<g
   id="g42">
</g>
<g
   id="g44">
</g>
<g
   id="g46">
</g>
<path
   id="path55"
   d="M 230.60833,409.40117 C 201.9441,389.60589 172.59506,361.00617 149.92263,330.77545 117.49621,287.53908 96.992047,238.83236 89.708216,187.73884 87.487211,172.15926 86.321338,150.36827 86.951234,136.20892 l 0.363349,-8.16768 6.480311,-1.38767 c 20.025916,-4.28831 46.447776,-13.11808 68.567166,-22.91409 23.90419,-10.586445 50.56613,-25.596539 70.71704,-39.812165 l 4.19539,-2.959677 8.3698,5.634313 c 30.25574,20.367302 67.13823,38.811459 100.3999,50.207879 11.5061,3.94232 29.30429,8.88273 38.12978,10.58403 l 3.02965,0.58402 0.36474,8.19936 c 0.76675,17.23605 -0.76856,40.0997 -3.9918,59.44564 -10.68687,64.14275 -43.2477,124.93172 -93.8295,175.17364 -11.64157,11.56335 -24.18326,22.55659 -35.97064,31.52956 -6.06644,4.61799 -15.83089,11.34081 -16.46235,11.33434 -0.30048,-0.003 -3.31806,-1.91974 -6.70574,-4.25925 z"
   style="fill:#0000ff;stroke-width:0.492753" /><path
   id="path57"
   d="m 234.02883,473.80738 c -1.90953,-0.57943 -3.15204,-1.30582 -9.57991,-5.6006 C 201.12363,452.622 173.82332,429.11621 151.37466,405.28922 88.182331,338.21696 49.378614,260.55861 37.481941,177.35433 c -3.106623,-21.72746 -4.222263,-40.30869 -3.814324,-63.52842 0.161886,-9.21448 0.521855,-17.537336 0.799931,-18.495243 0.852384,-2.93626 3.264303,-6.224094 5.547489,-7.562135 1.441271,-0.844638 5.391127,-1.985646 11.987493,-3.46286 38.866905,-8.703996 77.20015,-23.082081 116.70369,-43.773392 19.89635,-10.421381 44.37374,-25.393052 58.25693,-35.6330296 5.33566,-3.93548471 6.37458,-4.37873393 10.29735,-4.39329409 4.08187,-0.0151507 3.24046,-0.45870728 18.32491,9.66011369 52.28844,35.075686 113.59051,62.232269 167.81923,74.343271 10.21632,2.281633 12.50381,3.340929 14.70302,6.808726 2.55423,4.027614 2.60639,4.591003 2.63121,28.420873 0.0235,22.52883 -0.23599,27.8872 -2.21892,45.82602 -10.40439,94.12493 -56.84796,184.59312 -131.32439,255.80889 -21.30496,20.37221 -45.76045,40.11339 -62.06635,50.10175 -4.37518,2.68007 -7.67098,3.3724 -11.10038,2.33178 z m 15.30075,-35.31217 c 9.63128,-7.21891 19.77129,-15.51978 28.92325,-23.67731 8.16868,-7.28109 30.68865,-30.05751 38.16646,-38.6011 51.59945,-58.95369 83.47185,-124.10321 94.97927,-194.14462 1.54571,-9.40817 3.06568,-22.08534 3.98791,-33.26082 0.80455,-9.74951 1.25562,-39.93684 0.60278,-40.34032 -0.29396,-0.18167 -4.81737,-1.41685 -10.05203,-2.74483 C 353.20794,92.349345 293.64591,65.3022 244.0158,32.197627 l -6.61705,-4.413746 -9.6778,6.379083 C 177.05651,67.5582 120.1432,93.048635 66.870458,106.20497 c -4.27988,1.05697 -8.027206,2.07355 -8.327392,2.25908 -0.664149,0.41046 -0.223467,30.47203 0.591464,40.34731 5.521699,66.91163 25.372697,123.80899 62.99266,180.55096 28.26233,42.62789 69.00205,85.01452 109.31764,113.73682 l 5.69362,4.05634 1.45707,-0.85345 c 0.80139,-0.4694 5.63171,-3.98247 10.73406,-7.80682 z"
   style="fill:#007eff;stroke-width:0.492753;fill-opacity:1" /><path
   id="path882"
   d="M 233.56485,411.10128 C 198.90056,387.39333 165.6289,353.84134 141.0685,317.82559 111.47231,274.42528 93.102217,224.42544 88.476685,174.68089 87.115618,160.0435 86.649378,141.89663 87.389349,132.35989 l 0.320659,-4.13266 7.391292,-1.64367 c 20.25821,-4.50499 47.64866,-13.79619 69.31,-23.51085 20.92385,-9.383903 43.60488,-22.002661 63.15113,-35.134584 l 9.76567,-6.560953 7.23431,4.828593 c 28.49784,19.021115 61.86564,36.202274 92.44393,47.599594 13.17524,4.91076 30.72286,10.14214 43.89161,13.08519 l 5.91304,1.32149 0.31739,4.38662 c 1.07458,14.85177 -0.15284,38.17337 -3.05431,58.03363 -7.10032,48.60084 -28.12926,97.85823 -59.77084,140.00487 -17.9512,23.91104 -40.67394,47.40557 -63.91646,66.0874 -10.00218,8.03954 -21.93338,16.47476 -23.23056,16.42374 -0.34916,-0.0138 -1.96527,-0.93489 -3.59136,-2.04702 z"
   style="fill:#007eff;fill-opacity:1;stroke-width:0.492753" /></svg>
