<?xml version="1.0" encoding="UTF-8" standalone="no"?>
<svg
   xmlns:dc="http://purl.org/dc/elements/1.1/"
   xmlns:cc="http://creativecommons.org/ns#"
   xmlns:rdf="http://www.w3.org/1999/02/22-rdf-syntax-ns#"
   xmlns:svg="http://www.w3.org/2000/svg"
   xmlns="http://www.w3.org/2000/svg"
   xmlns:sodipodi="http://sodipodi.sourceforge.net/DTD/sodipodi-0.dtd"
   xmlns:inkscape="http://www.inkscape.org/namespaces/inkscape"
   inkscape:version="1.0 (4035a4f, 2020-05-01)"
   sodipodi:docname="espada.svg"
   xml:space="preserve"
   style="enable-background:new 0 0 290.226 290.226;"
   viewBox="0 0 290.226 290.226"
   y="0px"
   x="0px"
   id="Capa_1"
   version="1.1"><metadata
   id="metadata876"><rdf:RDF><cc:Work
       rdf:about=""><dc:format>image/svg+xml</dc:format><dc:type
         rdf:resource="http://purl.org/dc/dcmitype/StillImage" /></cc:Work></rdf:RDF></metadata><defs
   id="defs874" /><sodipodi:namedview
   inkscape:current-layer="Capa_1"
   inkscape:window-maximized="1"
   inkscape:window-y="23"
   inkscape:window-x="0"
   inkscape:cy="145.113"
   inkscape:cx="145.113"
   inkscape:zoom="3.1492699"
   showgrid="false"
   id="namedview872"
   inkscape:window-height="1107"
   inkscape:window-width="2048"
   inkscape:pageshadow="2"
   inkscape:pageopacity="0"
   guidetolerance="10"
   gridtolerance="10"
   objecttolerance="10"
   borderopacity="1"
   bordercolor="#666666"
   pagecolor="#ffffff" />
<g
   style="fill:#0032ff;fill-opacity:1"
   id="g839">
	<path
   style="fill:#0032ff;fill-opacity:1"
   id="path833"
   d="M63.951,243.575c-1.945-3.578-4.401-6.907-7.363-9.869c-3.106-3.102-6.626-5.633-10.4-7.63   c-4.51-2.387-0.945-7.5-0.945-7.5c4.616-7.023,8.825-14.079,12.305-20.226l-23.363-23.344H11.504c-4.362,0-7.898-3.539-7.898-7.902   c0-4.361,3.536-7.9,7.898-7.9h25.947c2.1,0,4.107,0.832,5.588,2.312l85.379,85.291c1.483,1.483,2.315,3.495,2.315,5.589v26.073   c0,4.365-3.537,7.897-7.9,7.897c-4.367,0-7.904-3.531-7.904-7.897v-22.798l-23.27-23.24c-6.281,3.707-13.582,8.252-20.816,13.25   C70.842,245.679,66.698,248.629,63.951,243.575z" />
	<path
   style="fill:#0032ff;fill-opacity:1"
   id="path835"
   d="M26.61,237.102c-7.106,0-13.784,2.764-18.812,7.784c-5.019,5.015-7.782,11.686-7.782,18.778   c0,7.097,2.764,13.762,7.782,18.776c5.027,5.016,11.706,7.783,18.812,7.785c7.102,0,13.781-2.77,18.804-7.785   c5.023-5.015,7.79-11.682,7.79-18.776c0-7.093-2.768-13.764-7.79-18.778C40.392,239.866,33.712,237.102,26.61,237.102z" />
	<path
   style="fill:#0032ff;fill-opacity:1"
   id="path837"
   d="M100.985,182.318c-3.502,3.499-9.232,3.499-12.734,0.001l-8.81-8.801c-3.502-3.498-3.502-9.223,0-12.721L229.832,10.564   c3.502-3.498,10.401-6.727,15.33-7.175l36.862-3.352c4.93-0.448,8.596,3.218,8.148,8.148l-3.346,36.791   c-0.448,4.93-3.68,11.825-7.182,15.324l-150.4,150.251c-3.502,3.498-9.232,3.498-12.734,0l-8.822-8.813   c-3.502-3.498-3.502-9.223,0-12.722L233.608,63.213c1.854-1.848,1.856-4.852,0.003-6.702c-1.848-1.853-4.853-1.853-6.709-0.002   L100.985,182.318z" />
</g>
<g
   id="g841">
</g>
<g
   id="g843">
</g>
<g
   id="g845">
</g>
<g
   id="g847">
</g>
<g
   id="g849">
</g>
<g
   id="g851">
</g>
<g
   id="g853">
</g>
<g
   id="g855">
</g>
<g
   id="g857">
</g>
<g
   id="g859">
</g>
<g
   id="g861">
</g>
<g
   id="g863">
</g>
<g
   id="g865">
</g>
<g
   id="g867">
</g>
<g
   id="g869">
</g>
</svg>
