<?xml version="1.0" encoding="UTF-8" standalone="no"?>
<svg
   xmlns:dc="http://purl.org/dc/elements/1.1/"
   xmlns:cc="http://creativecommons.org/ns#"
   xmlns:rdf="http://www.w3.org/1999/02/22-rdf-syntax-ns#"
   xmlns:svg="http://www.w3.org/2000/svg"
   xmlns="http://www.w3.org/2000/svg"
   xmlns:sodipodi="http://sodipodi.sourceforge.net/DTD/sodipodi-0.dtd"
   xmlns:inkscape="http://www.inkscape.org/namespaces/inkscape"
   inkscape:version="1.0 (4035a4f, 2020-05-01)"
   sodipodi:docname="raiva.svg"
   xml:space="preserve"
   style="enable-background:new 0 0 17.089 17.089;"
   viewBox="0 0 17.089 17.089"
   y="0px"
   x="0px"
   id="Capa_1"
   version="1.1"><metadata
   id="metadata876"><rdf:RDF><cc:Work
       rdf:about=""><dc:format>image/svg+xml</dc:format><dc:type
         rdf:resource="http://purl.org/dc/dcmitype/StillImage" /></cc:Work></rdf:RDF></metadata><defs
   id="defs874" /><sodipodi:namedview
   inkscape:current-layer="Capa_1"
   inkscape:window-maximized="1"
   inkscape:window-y="23"
   inkscape:window-x="0"
   inkscape:cy="8.5445"
   inkscape:cx="8.5445"
   inkscape:zoom="53.484698"
   showgrid="false"
   id="namedview872"
   inkscape:window-height="1107"
   inkscape:window-width="2048"
   inkscape:pageshadow="2"
   inkscape:pageopacity="0"
   guidetolerance="10"
   gridtolerance="10"
   objecttolerance="10"
   borderopacity="1"
   bordercolor="#666666"
   pagecolor="#ffffff" />
<g
   id="g839">
	<g
   id="g837">
		<path
   id="path833"
   d="M14.325,8.512l2.313-2.254c0.089-0.086,0.12-0.214,0.082-0.331s-0.139-0.202-0.26-0.22    l-3.411-0.496l0.535-3.437c0.02-0.122-0.032-0.243-0.133-0.314c-0.1-0.07-0.231-0.077-0.34-0.019l-2.874,1.567L8.834,0.166    c-0.109-0.221-0.47-0.221-0.579,0L6.781,3.152L3.686,1.586c-0.11-0.055-0.241-0.044-0.339,0.03    C3.249,1.69,3.201,1.813,3.224,1.933L3.843,5.24L0.629,5.707c-0.121,0.018-0.222,0.103-0.26,0.22    C0.331,6.044,0.363,6.172,0.451,6.258l2.364,2.305l-2.368,2.379c-0.086,0.087-0.116,0.215-0.076,0.332    c0.04,0.115,0.142,0.199,0.263,0.216l3.296,0.427l-0.568,3.306c-0.021,0.121,0.029,0.243,0.129,0.315    c0.1,0.072,0.231,0.082,0.339,0.024l3.011-1.582l1.503,2.933c0.056,0.107,0.167,0.176,0.288,0.176c0.001,0,0.003,0,0.005,0    c0.123-0.002,0.234-0.073,0.287-0.185l1.375-2.897l2.959,1.556c0.108,0.058,0.24,0.048,0.34-0.024s0.149-0.194,0.129-0.315    l-0.591-3.439l3.327-0.535c0.122-0.021,0.221-0.106,0.257-0.224c0.037-0.117,0.003-0.245-0.086-0.33L14.325,8.512z M12.204,10.873    c-0.075,0.011-0.143,0.053-0.186,0.114c-0.046,0.062-0.063,0.139-0.05,0.212l0.469,2.737L10.086,12.7    c-0.069-0.035-0.147-0.042-0.222-0.018c-0.072,0.023-0.133,0.077-0.166,0.146L8.611,15.12l-1.19-2.318    c-0.035-0.068-0.094-0.119-0.167-0.142c-0.027-0.009-0.057-0.013-0.085-0.013c-0.044,0-0.09,0.011-0.131,0.032l-2.389,1.256    L5.1,11.307c0.014-0.076-0.004-0.154-0.05-0.216c-0.046-0.063-0.115-0.103-0.192-0.112l-2.617-0.34l1.875-1.885    c0.052-0.053,0.083-0.126,0.083-0.202c-0.001-0.075-0.032-0.147-0.086-0.2L2.242,6.529l2.546-0.37    c0.076-0.01,0.144-0.052,0.19-0.115c0.046-0.061,0.064-0.14,0.049-0.216L4.535,3.199l2.46,1.247    c0.068,0.034,0.146,0.04,0.218,0.016c0.072-0.024,0.131-0.076,0.164-0.143l1.167-2.364L9.652,4.2    c0.035,0.069,0.096,0.122,0.169,0.145c0.073,0.023,0.153,0.016,0.221-0.021l2.279-1.243l-0.426,2.732    c-0.011,0.075,0.008,0.151,0.053,0.211c0.044,0.062,0.111,0.102,0.188,0.113l2.71,0.394l-1.831,1.785    c-0.055,0.053-0.087,0.128-0.087,0.205c0.001,0.077,0.033,0.15,0.089,0.204l1.824,1.724L12.204,10.873z"
   style="fill:#030104;" />
		<path
   id="path835"
   d="M12.461,7.298l-1.686-0.245c-0.045-0.007-0.088-0.032-0.115-0.07s-0.039-0.085-0.032-0.131    l0.265-1.699L9.477,5.925C9.434,5.947,9.385,5.952,9.339,5.938C9.294,5.924,9.256,5.891,9.235,5.849l-0.69-1.396L7.82,5.922    C7.798,5.964,7.762,5.997,7.716,6.011c-0.043,0.015-0.092,0.011-0.135-0.01L6.053,5.227l0.305,1.634    C6.367,6.908,6.356,6.957,6.33,6.996C6.301,7.035,6.26,7.061,6.211,7.068l-1.582,0.23l1.162,1.133    c0.034,0.033,0.054,0.078,0.054,0.125S5.826,8.649,5.794,8.682L4.627,9.853l1.626,0.211c0.048,0.006,0.091,0.031,0.12,0.07    c0.028,0.038,0.041,0.087,0.032,0.134l-0.281,1.633l1.485-0.779c0.025-0.014,0.053-0.021,0.082-0.021    c0.019,0,0.037,0.002,0.053,0.008c0.045,0.015,0.081,0.046,0.104,0.088l0.738,1.441l0.677-1.425    c0.02-0.044,0.057-0.076,0.103-0.091c0.046-0.016,0.096-0.012,0.138,0.011l1.461,0.768L10.673,10.2    c-0.007-0.045,0.003-0.093,0.032-0.131c0.025-0.039,0.067-0.064,0.114-0.072l1.639-0.263l-1.135-1.072    c-0.034-0.033-0.054-0.079-0.054-0.126s0.02-0.094,0.053-0.128L12.461,7.298z"
   style="fill:#030104;" />
	</g>
</g>
<g
   id="g841">
</g>
<g
   id="g843">
</g>
<g
   id="g845">
</g>
<g
   id="g847">
</g>
<g
   id="g849">
</g>
<g
   id="g851">
</g>
<g
   id="g853">
</g>
<g
   id="g855">
</g>
<g
   id="g857">
</g>
<g
   id="g859">
</g>
<g
   id="g861">
</g>
<g
   id="g863">
</g>
<g
   id="g865">
</g>
<g
   id="g867">
</g>
<g
   id="g869">
</g>
<path
   id="path878"
   d="M 8.2194152,11.895691 C 8.0208224,11.507625 7.8381413,11.169274 7.8134573,11.143799 c -0.088492,-0.09133 -0.1209036,-0.07932 -0.9220834,0.341577 -0.4053369,0.212943 -0.7400192,0.384125 -0.7437384,0.380406 -0.00372,-0.0037 0.056609,-0.37412 0.1340617,-0.823113 0.1307249,-0.757808 0.1389217,-0.820903 0.1142996,-0.879832 -0.014588,-0.03491 -0.043133,-0.07237 -0.063432,-0.08323 -0.020299,-0.01086 -0.40827,-0.06805 -0.8621575,-0.1270853 L 4.6451577,9.8451844 5.2337516,9.2556071 C 5.5586274,8.9301886 5.8313661,8.6417863 5.8424787,8.6119204 5.8566782,8.5737581 5.8568065,8.5406955 5.842914,8.4997388 5.8299086,8.4613977 5.6267317,8.251111 5.2449227,7.8808218 4.9268614,7.5723569 4.6725473,7.3148139 4.6797803,7.3085039 c 0.00723,-0.00631 0.3496956,-0.059508 0.7610282,-0.1182183 0.4113326,-0.05871 0.7751957,-0.1152182 0.8085846,-0.1255739 0.074195,-0.023011 0.1169138,-0.08015 0.1169138,-0.1563758 0,-0.031516 -0.066665,-0.4145097 -0.1481441,-0.851098 C 6.1366835,5.6206496 6.0723727,5.261087 6.07525,5.2582097 6.07813,5.2553297 6.4211329,5.4256513 6.8374848,5.636696 7.6583095,6.0527638 7.6991644,6.0674598 7.7839907,5.9771663 7.8063367,5.9533803 7.9866687,5.6075944 8.1847287,5.2087532 L 8.544838,4.4835874 8.887448,5.1725385 c 0.1884354,0.3789231 0.3602019,0.7078818 0.381703,0.7310192 0.028331,0.030487 0.060289,0.042068 0.116088,0.042068 0.064809,0 0.1878301,-0.060405 0.777338,-0.3816854 0.385189,-0.209927 0.702794,-0.3750553 0.705788,-0.3669517 0.003,0.0081 -0.05373,0.3940287 -0.126063,0.8576115 -0.0911,0.5838939 -0.126466,0.8560635 -0.115098,0.8857916 0.04,0.1046044 0.04788,0.1066274 0.903776,0.2321334 0.444949,0.065246 0.827929,0.1187752 0.851066,0.1189544 0.02314,1.869e-4 0.04207,0.00725 0.04207,0.015706 0,0.00846 -0.07362,0.086057 -0.163598,0.1724385 -0.08998,0.086382 -0.350801,0.3407522 -0.579605,0.5652671 L 11.264906,8.4531 v 0.0824 c 0,0.095414 -0.06449,0.02631 0.676513,0.72487 0.264108,0.2489787 0.474448,0.457819 0.467424,0.4640895 -0.007,0.00627 -0.340903,0.063391 -0.741953,0.1269348 -0.401049,0.063543 -0.773183,0.1241799 -0.826963,0.1347476 -0.114225,0.022445 -0.173323,0.08245 -0.173323,0.1759851 0,0.03341 0.06329,0.428929 0.140637,0.878941 0.07735,0.450011 0.137826,0.821014 0.13439,0.82445 -0.0034,0.0034 -0.333855,-0.165884 -0.734265,-0.376266 -0.4175768,-0.219403 -0.7495671,-0.382675 -0.7785541,-0.382893 -0.027795,-2.07e-4 -0.07222,0.0095 -0.098722,0.02158 -0.052124,0.02375 -0.036465,-0.0066 -0.4715638,0.912892 -0.1386866,0.293075 -0.257979,0.539068 -0.2650943,0.546651 -0.00712,0.0076 -0.175422,-0.30372 -0.3740149,-0.691787 z"
   style="fill:#ff6600;stroke-width:0.0186969" /><path
   id="path880"
   d="M 8.4785245,17.03117 C 8.442238,17.010119 8.394878,16.96614 8.3732798,16.93344 8.3516817,16.90074 8.0048107,16.230343 7.6024552,15.44367 7.2000998,14.656996 6.8642205,14.002962 6.8560571,13.99026 6.8453695,13.973631 6.4187626,14.189151 5.3321498,14.760131 4.5021644,15.196262 3.792983,15.56303 3.7561914,15.575173 3.5757663,15.634718 3.3749709,15.480368 3.3746981,15.28192 3.374642,15.242341 3.5015204,14.470933 3.6566463,13.56768 3.8117723,12.664427 3.9342094,11.920918 3.9287289,11.915437 3.9232487,11.909957 3.1758674,11.809604 2.2678818,11.692432 1.1660397,11.550243 0.59291594,11.468863 0.54458507,11.447733 0.40251027,11.385619 0.32508245,11.181825 0.39283314,11.048314 c 0.0178242,-0.03512 0.56985344,-0.60358 1.22673166,-1.2632328 0.6568783,-0.659653 1.1943241,-1.2081517 1.1943241,-1.218886 0,-0.010734 -0.5321615,-0.538283 -1.1825812,-1.1723299 C 0.92577502,6.7060927 0.43115813,6.2097492 0.40517535,6.1634528 0.32564173,6.0217388 0.38477062,5.8258893 0.52971899,5.7509337 0.56665477,5.7318335 3.7398757,5.2538392 3.8297391,5.2538392 c 0.00686,0 0.012663,-0.014724 0.012885,-0.03272 C 3.8428464,5.2031237 3.7026448,4.4380946 3.5310662,3.5210548 L 3.2191052,1.8537095 3.2518781,1.7678952 C 3.3093804,1.6173274 3.471856,1.5322758 3.6168476,1.5768435 c 0.038908,0.011959 0.766592,0.3738264 1.6170758,0.8041487 0.8504838,0.4303224 1.5497573,0.7789813 1.5539409,0.7747975 0.00418,-0.00418 0.3372628,-0.6759832 0.7401756,-1.4928878 0.4029128,-0.81690452 0.7479003,-1.50738117 0.7666387,-1.53439249 0.1010155,-0.14561185 0.3980043,-0.14561185 0.4999599,0 0.018913,0.0270113 0.3484679,0.68644331 0.7323444,1.46540439 0.3838763,0.7789612 0.7055491,1.416293 0.7148271,1.416293 0.0093,0 0.674067,-0.3585497 1.477307,-0.7967771 1.342876,-0.7326392 1.467575,-0.7967772 1.549117,-0.7967772 0.144733,0 0.268445,0.102104 0.303254,0.2502879 0.0067,0.028638 -0.103278,0.7874723 -0.259896,1.7928067 -0.149359,0.9587331 -0.267291,1.7474211 -0.262072,1.7526398 0.0052,0.00522 0.781618,0.1215705 1.725333,0.2585594 0.943715,0.1369889 1.742353,0.2614365 1.774752,0.2765503 0.144149,0.067244 0.215933,0.270449 0.144159,0.4080788 -0.01915,0.036713 -0.563177,0.5816957 -1.209699,1.2118145 l -1.174905,1.1450963 0.06244,0.060688 c 0.03434,0.033378 0.558842,0.5290847 1.165557,1.1015696 0.706377,0.6665232 1.118249,1.0684272 1.145188,1.1174702 0.05089,0.09266 0.05268,0.167068 0.0064,0.268874 -0.03555,0.07828 -0.106313,0.141071 -0.187391,0.166286 -0.02497,0.0078 -0.788405,0.133571 -1.696526,0.27957 -0.908122,0.145999 -1.656846,0.271167 -1.663831,0.278153 -0.007,0.007 0.120213,0.786759 0.282662,1.732831 0.206561,1.202973 0.292516,1.745382 0.285895,1.80412 -0.0057,0.05013 -0.02911,0.109742 -0.0582,0.147878 -0.05838,0.07654 -0.190524,0.132613 -0.278781,0.118291 -0.03381,-0.0055 -0.737009,-0.365281 -1.562658,-0.799542 -0.917699,-0.482677 -1.507888,-0.782856 -1.518442,-0.772302 -0.0095,0.0095 -0.3146886,0.643722 -0.6782079,1.409393 -0.3635195,0.765671 -0.6791189,1.4276 -0.7013324,1.470954 -0.083173,0.16233 -0.2800986,0.223413 -0.4334492,0.13445 z m 0.5610274,-2.788779 c 0.7370998,-1.556847 0.6952007,-1.475425 0.7852706,-1.526018 0.058406,-0.03281 0.097161,-0.04183 0.1495212,-0.03481 0.043539,0.0058 0.5292573,0.250564 1.2648993,0.637308 0.656821,0.345306 1.196608,0.620935 1.199527,0.612511 0.0029,-0.0084 -0.1008,-0.632864 -0.230488,-1.387642 -0.142766,-0.830891 -0.231873,-1.397079 -0.225852,-1.435067 0.01236,-0.07795 0.05326,-0.14192 0.11778,-0.184194 0.03522,-0.02308 0.43666,-0.09465 1.39108,-0.247995 0.737861,-0.118553 1.342845,-0.222462 1.344408,-0.230908 0.0016,-0.0084 -0.407889,-0.403301 -0.909894,-0.8774566 -0.502005,-0.474156 -0.927195,-0.8841001 -0.944867,-0.9109873 -0.03667,-0.055789 -0.04565,-0.1323793 -0.02572,-0.2193685 0.01078,-0.047041 0.217661,-0.2587807 0.95847,-0.9809587 C 14.684783,6.7051034 14.85206,6.5333846 14.823845,6.5224785 14.804832,6.5151295 14.19191,6.4235276 13.461794,6.3189186 12.506446,6.1820389 12.112682,6.1186261 12.057155,6.092712 12.002405,6.067162 11.967315,6.032795 11.936327,5.9743821 l -0.04367,-0.082322 0.219342,-1.4062938 c 0.120638,-0.7734616 0.216859,-1.4087774 0.213823,-1.4118126 -0.003,-0.00304 -0.53115,0.2813726 -1.173588,0.632018 C 9.8725922,4.4044054 9.9054758,4.3903275 9.7615161,4.3013555 9.6885648,4.2562692 9.6698944,4.2202404 8.8027943,2.4512892 8.6643115,2.1687738 8.5447715,1.946605 8.5362023,1.9558203 8.527658,1.965009 8.261987,2.4983781 7.9458222,3.1410853 7.6296574,3.7837925 7.3554324,4.331744 7.3364335,4.3587553 7.287602,4.4281808 7.1801894,4.4750095 7.0975583,4.4628978 7.0604277,4.4574553 6.4720487,4.1696364 5.7900495,3.8232997 5.1080502,3.4769633 4.5452135,3.1984345 4.5393011,3.2043468 4.5333888,3.210259 4.6401036,3.8125789 4.7764451,4.5428354 4.9480689,5.4620677 5.0206633,5.8901653 5.0123931,5.9342487 4.9971115,6.015707 4.9440236,6.0828552 4.8663863,6.118926 4.8319789,6.1349117 4.2558537,6.2265712 3.5524179,6.3279733 2.8634358,6.427292 2.2843373,6.5146168 2.2655321,6.5220283 c -0.027824,0.010967 0.1253618,0.1689073 0.8226652,0.8482005 1.0998123,1.0714055 1.071261,1.0419236 1.09015,1.1256749 0.034448,0.1527364 0.04739,0.1373258 -0.986692,1.1748289 -0.5302655,0.5320194 -0.9604975,0.9701004 -0.956071,0.9735134 0.00443,0.0034 0.5801743,0.07962 1.2794398,0.169357 0.6992654,0.08973 1.3111857,0.171992 1.3598227,0.182796 0.1033174,0.02295 0.1929521,0.111128 0.2110546,0.207623 0.0075,0.03998 -0.067532,0.521387 -0.2147938,1.378102 -0.1244769,0.72416 -0.2239025,1.327029 -0.220946,1.33971 0.00326,0.01396 0.488342,-0.230782 1.2297965,-0.620476 0.8934256,-0.469567 1.2411602,-0.643532 1.2863428,-0.643532 0.073064,0 0.1475662,0.03549 0.2023301,0.09638 0.021688,0.02411 0.3077506,0.567496 0.6356958,1.207515 0.3279452,0.640019 0.6009205,1.163767 0.6066115,1.163884 0.00569,1.12e-4 0.1985672,-0.39733 0.4286136,-0.883217 z"
   style="fill:#ff9400;stroke-width:0.0186969;fill-opacity:1" /><path
   id="path882"
   d="M 8.482271,12.372698 C 8.4312162,12.277577 8.2907979,12.010445 8.1702301,11.77907 7.7930122,11.055173 7.7952055,11.057973 7.6433658,11.106412 c -0.083609,0.02667 -0.4496647,0.208341 -1.030135,0.511244 -0.2292495,0.119628 -0.4252475,0.217505 -0.435551,0.217505 -0.010755,0 -0.014407,-0.02588 -0.00857,-0.06076 0.00559,-0.03342 0.05596,-0.334208 0.1119391,-0.668416 0.1518306,-0.90646 0.1492566,-0.884496 0.1126863,-0.961562 -0.017067,-0.03597 -0.044944,-0.06974 -0.061947,-0.07504 C 6.2919501,10.056946 5.4811388,9.943206 5.0575213,9.890623 4.8775633,9.8682852 4.7181453,9.8461652 4.7032591,9.8414678 4.6856747,9.8359187 4.8269269,9.6809374 5.1064814,9.399054 5.3431398,9.1604238 5.6098315,8.8869221 5.6991295,8.7912721 5.9450619,8.5278459 5.9794906,8.6012144 5.2803179,7.8987742 L 4.6991463,7.3148864 4.8175688,7.2945004 C 4.8827011,7.283288 5.1948529,7.2357818 5.5112394,7.188931 6.2478628,7.079851 6.2715042,7.075095 6.3253421,7.0251559 6.3670947,6.9864271 6.3696853,6.9735447 6.3600768,6.8524272 6.3519811,6.7503797 6.148736,5.5841444 6.0935475,5.3230627 c -0.010592,-0.050109 0.018012,-0.037768 0.6808926,0.2937666 0.380572,0.1903402 0.7435672,0.3634619 0.8066559,0.3847149 0.1883502,0.063451 0.1619607,0.097069 0.5895806,-0.7510973 l 0.3740541,-0.7419213 0.343863,0.6839156 c 0.1891248,0.3761535 0.3594487,0.6995011 0.3784977,0.7185501 0.022222,0.022222 0.061559,0.034635 0.109762,0.034635 0.083763,0 0.2188218,-0.063663 0.8095746,-0.3816129 0.494856,-0.2663368 0.667144,-0.3512552 0.667144,-0.3288267 0,0.010537 -0.0459,0.3240383 -0.102009,0.6966695 -0.144718,0.961183 -0.148853,0.9993655 -0.113968,1.0526065 0.01576,0.024052 0.06028,0.052865 0.09894,0.064029 0.08579,0.024774 0.737395,0.1273892 1.257546,0.1980374 0.210808,0.028633 0.389839,0.057506 0.397847,0.064163 0.008,0.00666 -0.241372,0.2617053 -0.554178,0.5667742 -0.515255,0.5025114 -0.569561,0.5612725 -0.577499,0.624875 -0.0048,0.038612 0.0021,0.091849 0.01541,0.1183038 0.01329,0.026455 0.220339,0.2339444 0.460106,0.4610881 0.239766,0.2271437 0.485285,0.4633365 0.545597,0.5248731 l 0.109659,0.1118847 -0.05357,0.011325 c -0.02946,0.00623 -0.388619,0.066104 -0.798125,0.1330569 -0.409507,0.066953 -0.76817,0.1339424 -0.797029,0.1488651 -0.104716,0.05415 -0.10343,0.07794 0.05553,1.026901 0.07217,0.430854 0.127591,0.786999 0.123157,0.791433 -0.0044,0.0044 -0.331395,-0.156672 -0.726578,-0.358014 -0.722974,-0.36835 -0.7872533,-0.393797 -0.875466,-0.346587 -0.039621,0.0212 -0.1327877,0.201743 -0.4844275,0.938727 -0.1263427,0.264796 -0.2363968,0.481446 -0.2445645,0.481446 -0.00817,0 -0.056622,-0.07783 -0.107677,-0.172946 z"
   style="fill:#ff9400;fill-opacity:1;stroke-width:0.0186969" /><path
   id="path884"
   d="M 8.5412748,17.047989 C 8.411272,17.004904 8.4424615,17.060308 7.3671032,14.962223 7.0917125,14.42492 6.8557723,13.985309 6.8427918,13.985309 c -0.037477,0 -0.502316,0.235082 -1.5983011,0.808308 -1.3312563,0.696277 -1.501677,0.780931 -1.5721242,0.780931 -0.154023,0 -0.2790328,-0.129866 -0.278644,-0.289468 1.308e-4,-0.0516 0.080157,-0.569189 0.1778478,-1.150196 0.359262,-2.136678 0.3705701,-2.209403 0.3459167,-2.224639 -0.012675,-0.0078 -0.062139,-0.01902 -0.1099208,-0.02487 C 3.3803083,11.833112 1.0755724,11.524887 0.84631169,11.48935 0.6845009,11.464269 0.53254386,11.430928 0.50862936,11.415258 0.4401715,11.370403 0.3832872,11.252358 0.3832872,11.155152 c 0,-0.0844 0.004157,-0.09032 0.22903747,-0.326161 C 0.73829528,10.696883 1.2830773,10.14163 1.8229513,9.5950956 2.3628254,9.0485614 2.80703,8.5897937 2.8100727,8.5756119 2.8131155,8.5614303 2.2847799,8.0252573 1.6359936,7.3841167 0.98720734,6.7429759 0.43993585,6.1917955 0.41983471,6.1592712 0.35516941,6.0546406 0.38234398,5.8906568 0.47903648,5.8020208 0.52975834,5.7555253 0.55870132,5.7499211 1.477058,5.608779 2.1448745,5.5061424 3.6856433,5.2785154 3.7767812,5.2690271 c 0.044772,-0.00466 0.057238,-0.015734 0.061777,-0.054871 0.0055,-0.047457 -0.1557122,-0.942608 -0.4625906,-2.5685392 L 3.2277552,1.8603452 3.277905,1.757512 C 3.318986,1.673274 3.34414,1.6467006 3.4170102,1.6105572 c 0.068272,-0.033863 0.1048388,-0.041142 0.157265,-0.031307 0.03757,0.00705 0.7691969,0.3655513 1.6258372,0.7966735 0.8566405,0.4311222 1.5667025,0.7838584 1.5779156,0.7838584 0.011213,0 0.3599794,-0.6854129 0.7750359,-1.5231398 0.8461525,-1.70782681 0.778748,-1.59910885 0.9914361,-1.59910885 0.2111561,0 0.1486702,-0.09959276 0.9561619,1.52397205 0.396287,0.7967856 0.7284011,1.4487011 0.7380321,1.4487011 0.03053,0 0.244683,-0.1133272 1.345265,-0.7118861 1.454869,-0.7912395 1.636508,-0.8834821 1.714718,-0.8707904 0.09427,0.015298 0.188173,0.08255 0.23015,0.1648326 l 0.03782,0.074143 -0.03921,0.2838891 c -0.02157,0.156139 -0.135091,0.9149108 -0.252277,1.6861595 -0.117186,0.7712486 -0.218618,1.4414042 -0.225405,1.4892347 -0.01058,0.074583 -0.0074,0.088453 0.02223,0.097417 0.03552,0.010743 0.222654,0.039033 1.875278,0.2835067 1.387643,0.2052748 1.582138,0.238766 1.642174,0.2827762 0.07229,0.052989 0.116211,0.1505064 0.116245,0.258066 l 3.7e-5,0.092581 -0.574931,0.5725513 c -0.316212,0.3149033 -0.859043,0.8495749 -1.206293,1.1881592 l -0.631362,0.6156079 0.709775,0.6692398 c 1.124242,1.0600359 1.622707,1.5426789 1.666603,1.6137059 0.07678,0.124224 0.01875,0.322397 -0.11459,0.391349 -0.0299,0.01546 -0.515125,0.103671 -1.078274,0.196019 -1.975412,0.323937 -2.302376,0.379337 -2.326379,0.394172 -0.01915,0.01184 0.03346,0.359753 0.251888,1.665898 0.15185,0.908016 0.280538,1.709834 0.285972,1.781817 0.0078,0.103952 0.0029,0.144284 -0.02409,0.196036 -0.04052,0.07772 -0.158635,0.149122 -0.247387,0.14955 -0.06574,3.16e-4 -0.415665,-0.173338 -1.600187,-0.794112 -0.762193,-0.399443 -1.451351,-0.751616 -1.497412,-0.765206 -0.03469,-0.01023 -0.05169,0.01514 -0.152165,0.227166 -0.09084,0.191681 -0.7031196,1.474743 -1.20916,2.533843 -0.068368,0.143088 -0.1021423,0.192181 -0.1567047,0.22778 -0.083701,0.05461 -0.1793647,0.07092 -0.2597475,0.04428 z m 0.1731985,-2.104462 c 0.0483,-0.100263 0.2783497,-0.581943 0.5112217,-1.0704 0.2328721,-0.488458 0.4483118,-0.934143 0.4787549,-0.990411 0.061441,-0.113564 0.1544728,-0.187496 0.2359337,-0.187496 0.059937,0 0.4184134,0.17598 1.3899604,0.682349 1.044097,0.544182 1.112467,0.577013 1.112467,0.534195 0,-0.02004 -0.07218,-0.463925 -0.160396,-0.986408 -0.305951,-1.812044 -0.305275,-1.807163 -0.261963,-1.890917 0.06216,-0.12021 -0.0056,-0.104661 1.64581,-0.377801 0.626623,-0.103644 1.146164,-0.192676 1.154536,-0.19785 0.0084,-0.0052 0.01522,-0.01606 0.01522,-0.02419 0,-0.0081 -0.413326,-0.408784 -0.918502,-0.890347 -0.60611,-0.5777746 -0.927464,-0.8970171 -0.944856,-0.9386421 -0.06122,-0.1465214 -0.0846,-0.1182537 0.931785,-1.1268343 0.512961,-0.5090241 0.932413,-0.9349076 0.932115,-0.9464077 -2.97e-4,-0.0115 -0.03209,-0.025402 -0.07065,-0.030892 -0.564514,-0.080373 -2.211072,-0.3263175 -2.41517,-0.360751 -0.148333,-0.025025 -0.289277,-0.058331 -0.313209,-0.074011 -0.02393,-0.015681 -0.06445,-0.060144 -0.09003,-0.098806 l -0.04652,-0.070296 0.175913,-1.1305284 c 0.230639,-1.4822391 0.259896,-1.6821662 0.247917,-1.6941454 -0.0055,-0.00553 -0.06327,0.019226 -0.128317,0.055007 -0.585003,0.3217956 -1.956001,1.0592601 -2.078609,1.1180915 -0.08497,0.040769 -0.1846528,0.079022 -0.2215265,0.085006 C 9.7602631,4.3531262 9.7421431,4.3238298 9.1243853,3.0829259 8.8157318,2.4629263 8.5547024,1.953113 8.5443201,1.9500077 8.5339377,1.9469023 8.255098,2.4908422 7.924676,3.1587631 7.2588078,4.5047614 7.28638,4.4608914 7.1171237,4.4436484 7.0579348,4.4376184 6.6994943,4.2666269 5.7946864,3.8127891 5.1120042,3.4703661 4.5472505,3.1963972 4.5396785,3.2039695 c -0.00757,0.00757 0.080557,0.5328892 0.1958423,1.1673715 0.2854787,1.571152 0.280688,1.5391213 0.2422585,1.6197087 -0.06106,0.1280448 -0.019646,0.1190585 -1.6867249,0.3659919 -0.5550825,0.082221 -1.0157283,0.1494923 -1.0236573,0.1494923 -0.00793,0 -0.014708,0.010517 -0.015065,0.023371 -3.571e-4,0.012854 0.4283276,0.448259 0.9526318,0.9675665 C 4.2774291,8.5597159 4.2302433,8.4999299 4.1306221,8.6703109 4.1000741,8.7225569 3.7487243,9.092808 3.2825786,9.5639755 2.2976556,10.55951 2.2246324,10.635138 2.2366791,10.647185 c 0.00533,0.0053 0.5265107,0.0773 1.1581823,0.159939 1.5031521,0.196649 1.5047618,0.196899 1.570845,0.243955 0.084776,0.06037 0.1165969,0.137533 0.102889,0.249513 -0.00641,0.05236 -0.1056409,0.66084 -0.2205156,1.35219 -0.1148745,0.69135 -0.2034049,1.262458 -0.196734,1.269128 0.01774,0.01774 0.1852964,-0.06533 1.248361,-0.618922 1.0388498,-0.540979 1.2139494,-0.626465 1.2831791,-0.626465 0.072783,0 0.1523077,0.05152 0.202673,0.131305 0.025745,0.04078 0.283163,0.530636 0.5720412,1.088564 0.6590849,1.272931 0.6359458,1.22943 0.6539535,1.22943 0.00831,0 0.05462,-0.08203 0.1029197,-0.182295 z"
   style="fill:#ff5b00;fill-opacity:1;stroke-width:0.0186969" /></svg>
