<?xml version="1.0" encoding="UTF-8" standalone="no"?>
<svg
   xmlns:dc="http://purl.org/dc/elements/1.1/"
   xmlns:cc="http://creativecommons.org/ns#"
   xmlns:rdf="http://www.w3.org/1999/02/22-rdf-syntax-ns#"
   xmlns:svg="http://www.w3.org/2000/svg"
   xmlns="http://www.w3.org/2000/svg"
   xmlns:sodipodi="http://sodipodi.sourceforge.net/DTD/sodipodi-0.dtd"
   xmlns:inkscape="http://www.inkscape.org/namespaces/inkscape"
   inkscape:version="1.0 (4035a4f, 2020-05-01)"
   sodipodi:docname="silhueta-em-forma-de-coracao.svg"
   xml:space="preserve"
   style="enable-background:new 0 0 511.626 511.627;"
   viewBox="0 0 511.626 511.627"
   height="511.627px"
   width="511.626px"
   y="0px"
   x="0px"
   id="Capa_1"
   version="1.1"><metadata
   id="metadata872"><rdf:RDF><cc:Work
       rdf:about=""><dc:format>image/svg+xml</dc:format><dc:type
         rdf:resource="http://purl.org/dc/dcmitype/StillImage" /></cc:Work></rdf:RDF></metadata><defs
   id="defs870" /><sodipodi:namedview
   inkscape:current-layer="Capa_1"
   inkscape:window-maximized="1"
   inkscape:window-y="23"
   inkscape:window-x="0"
   inkscape:cy="255.81351"
   inkscape:cx="255.813"
   inkscape:zoom="1.7864612"
   showgrid="false"
   id="namedview868"
   inkscape:window-height="1107"
   inkscape:window-width="2048"
   inkscape:pageshadow="2"
   inkscape:pageopacity="0"
   guidetolerance="10"
   gridtolerance="10"
   objecttolerance="10"
   borderopacity="1"
   bordercolor="#666666"
   pagecolor="#ffffff" />
<g
   style="fill:#ff0000"
   transform="matrix(1,0,0,1.0995629,0,-23.790298)"
   id="g835">
	<path
   style="fill:#ff0000"
   id="path833"
   d="M 475.366,71.951 C 451.191,48.345 417.791,36.547 375.151,36.547 c -11.8,0 -23.843,2.046 -36.117,6.136 -12.279,4.093 -23.702,9.615 -34.256,16.562 -10.568,6.945 -19.65,13.467 -27.269,19.556 -7.61,6.091 -14.845,12.564 -21.696,19.414 C 248.959,91.365 241.726,84.892 234.115,78.801 226.499,72.712 217.413,66.194 206.847,59.245 196.283,52.295 184.862,46.777 172.586,42.683 160.311,38.594 148.27,36.547 136.47,36.547 93.833,36.547 60.431,48.348 36.259,71.951 12.087,95.552 0,128.288 0,170.162 c 0,12.753 2.24,25.889 6.711,39.398 4.471,13.514 9.566,25.031 15.275,34.546 5.708,9.514 12.181,18.796 19.414,27.837 7.233,9.042 12.519,15.27 15.846,18.699 3.33,3.422 5.948,5.899 7.851,7.419 L 243.25,469.937 c 3.427,3.429 7.614,5.144 12.562,5.144 4.948,0 9.138,-1.715 12.563,-5.137 l 177.87,-171.307 c 43.588,-43.583 65.38,-86.41 65.38,-128.475 10e-4,-41.874 -12.088,-74.61 -36.259,-98.211 z" />
</g>
<g
   id="g837">
</g>
<g
   id="g839">
</g>
<g
   id="g841">
</g>
<g
   id="g843">
</g>
<g
   id="g845">
</g>
<g
   id="g847">
</g>
<g
   id="g849">
</g>
<g
   id="g851">
</g>
<g
   id="g853">
</g>
<g
   id="g855">
</g>
<g
   id="g857">
</g>
<g
   id="g859">
</g>
<g
   id="g861">
</g>
<g
   id="g863">
</g>
<g
   id="g865">
</g>
</svg>
