<?xml version="1.0" encoding="UTF-8" standalone="no"?>
<svg
   xmlns:dc="http://purl.org/dc/elements/1.1/"
   xmlns:cc="http://creativecommons.org/ns#"
   xmlns:rdf="http://www.w3.org/1999/02/22-rdf-syntax-ns#"
   xmlns:svg="http://www.w3.org/2000/svg"
   xmlns="http://www.w3.org/2000/svg"
   xmlns:sodipodi="http://sodipodi.sourceforge.net/DTD/sodipodi-0.dtd"
   xmlns:inkscape="http://www.inkscape.org/namespaces/inkscape"
   inkscape:version="1.0 (4035a4f, 2020-05-01)"
   sodipodi:docname="vida.svg"
   xml:space="preserve"
   style="enable-background:new 0 0 297 297;"
   viewBox="0 0 297 297"
   y="0px"
   x="0px"
   id="Capa_1"
   version="1.1"><metadata
   id="metadata872"><rdf:RDF><cc:Work
       rdf:about=""><dc:format>image/svg+xml</dc:format><dc:type
         rdf:resource="http://purl.org/dc/dcmitype/StillImage" /></cc:Work></rdf:RDF></metadata><defs
   id="defs870" /><sodipodi:namedview
   inkscape:current-layer="Capa_1"
   inkscape:window-maximized="1"
   inkscape:window-y="23"
   inkscape:window-x="0"
   inkscape:cy="198.54158"
   inkscape:cx="148.5"
   inkscape:zoom="3.0774411"
   showgrid="false"
   id="namedview868"
   inkscape:window-height="1107"
   inkscape:window-width="2048"
   inkscape:pageshadow="2"
   inkscape:pageopacity="0"
   guidetolerance="10"
   gridtolerance="10"
   objecttolerance="10"
   borderopacity="1"
   bordercolor="#666666"
   pagecolor="#ffffff" />
<g
   id="g835">
	<path
   id="path833"
   d="M217.619,23.04c-29.604,0-55.474,16.286-69.119,40.372C134.855,39.326,108.984,23.04,79.381,23.04   C35.61,23.04,0,58.65,0,102.421c0,23.083,7.847,46.558,23.323,69.771c12.014,18.021,28.664,35.957,49.488,53.31   c35.071,29.227,69.645,46.647,71.1,47.375c1.444,0.723,3.017,1.083,4.589,1.083s3.145-0.36,4.589-1.083   c1.455-0.728,36.028-18.149,71.1-47.374c20.824-17.354,37.475-35.289,49.488-53.311C289.153,148.979,297,125.504,297,102.421   C297,58.65,261.39,23.04,217.619,23.04z" />
</g>
<g
   id="g837">
</g>
<g
   id="g839">
</g>
<g
   id="g841">
</g>
<g
   id="g843">
</g>
<g
   id="g845">
</g>
<g
   id="g847">
</g>
<g
   id="g849">
</g>
<g
   id="g851">
</g>
<g
   id="g853">
</g>
<g
   id="g855">
</g>
<g
   id="g857">
</g>
<g
   id="g859">
</g>
<g
   id="g861">
</g>
<g
   id="g863">
</g>
<g
   id="g865">
</g>
<path
   id="path874"
   d="M 146.7128,273.58288 C 143.17793,272.92282 124.31263,262.09564 108.53173,251.66997 77.705939,231.30487 51.985704,208.70207 33.649655,185.86401 11.668388,158.48574 0.11022746,129.66817 0.17085614,102.39248 0.23995826,71.304751 18.698269,42.891814 47.117068,30.12802 c 6.547758,-2.940809 14.889659,-5.305592 22.09628,-6.263911 4.945937,-0.657698 14.721721,-0.743609 19.171772,-0.168484 24.48696,3.164697 45.90685,16.84447 58.4083,37.302358 1.43111,2.34193 1.74178,2.679675 2.02357,2.199913 1.41444,-2.408163 5.69453,-8.589112 7.42269,-10.719231 2.55458,-3.148738 8.64277,-9.214167 11.75704,-11.713066 11.38152,-9.132583 25.67237,-15.138379 40.61816,-17.069974 4.45005,-0.575125 14.22583,-0.489214 19.17177,0.168484 17.33543,2.305222 33.13828,10.120661 45.68435,22.593598 16.91683,16.818227 25.04213,39.377096 23.02455,63.924753 -2.65635,32.31964 -19.94142,64.40098 -51.78851,96.12028 -23.36267,23.26891 -55.69631,46.91358 -87.43352,63.93761 -5.88474,3.15661 -7.65853,3.68444 -10.56072,3.14253 z"
   style="fill:#ff0000;stroke-width:0.324945" /></svg>
